<svg width="343" height="98" viewBox="0 0 343 98" fill="none" xmlns="http://www.w3.org/2000/svg">
<path d="M342.519 91.7373L291.745 7.1853C290.719 5.38632 289.352 3.75867 287.728 2.47369C285.847 1.10304 283.539 0.332047 281.231 0.417712C278.924 0.332047 276.616 1.10304 274.735 2.47369C273.026 3.75867 271.658 5.38632 270.632 7.1853L219.944 91.7373C219.26 92.851 219.26 94.2216 219.944 95.4209C220.628 96.5346 221.825 97.2199 223.107 97.3056H240.715C241.997 97.3056 243.194 96.6202 243.792 95.5066L280.719 32.9707L317.816 95.5066C318.5 96.6202 319.696 97.3056 320.978 97.3056H339.356C340.638 97.3056 341.835 96.6202 342.519 95.4209C343.202 94.2216 343.117 92.851 342.519 91.7373Z" fill="#005CA9"/>
<path d="M20.4403 64.8383L17.2776 63.8103L0.524083 91.309C-0.159735 92.4226 -0.159735 93.879 0.438606 94.9926C1.12242 96.1063 2.3191 96.8773 3.60126 96.8773L21.2096 96.9629C22.4917 96.9629 23.6884 96.3633 24.3722 95.2496L38.9888 70.8349L21.2951 65.181L20.4403 64.8383ZM89.4204 34.2557L73.1797 6.84267C72.154 5.04369 70.7864 3.41604 69.1623 2.13106C65.3158 -0.69591 60.0162 -0.69591 56.0843 2.04539C54.3747 3.24471 52.9216 4.87236 51.8959 6.757L26.6801 48.2192L48.1349 43.5076L56.5117 41.6229L61.8967 32.628L65.9142 39.5669L81.3001 36.1403L89.4204 34.2557Z" fill="#005CA9"/>
<path d="M213.277 45.7349C207.977 40.9377 200.284 38.4534 190.369 38.4534H157.289C154.811 38.4534 153.016 37.8537 151.733 36.6544C150.451 35.4551 149.938 33.7417 149.938 31.3431C149.938 28.9445 150.537 27.2312 151.733 26.0318C152.93 24.8325 154.896 24.2329 157.46 24.2329H213.533C215.499 24.2329 217.123 22.6052 217.123 20.6349V5.21508C217.123 3.24477 215.499 1.61712 213.533 1.61712H157.46C153.101 1.53146 148.742 2.21678 144.553 3.6731C140.878 4.95808 137.544 7.01406 134.723 9.58403C132.074 12.154 129.937 15.238 128.655 18.7503C127.287 22.3482 126.603 26.1175 126.689 29.9725C126.689 33.9131 127.372 37.768 128.825 41.4516C130.279 44.8783 132.33 48.0479 134.98 50.7035C137.801 53.3592 141.134 55.3295 144.724 56.7001C148.742 58.1565 153.016 58.8418 157.204 58.8418H190.455C193.703 58.8418 196.096 59.5271 197.635 60.8121C199.002 62.0114 199.686 63.896 199.686 66.6374C199.857 68.779 199.002 70.9206 197.464 72.3769C195.925 73.8333 193.617 74.6043 190.455 74.6043H128.056L142.416 97.3057H190.455C194.985 97.3913 199.515 96.6203 203.789 95.0783C207.465 93.7934 210.884 91.6517 213.619 88.8248C216.269 86.0835 218.32 82.8282 219.517 79.3159C220.799 75.6322 221.483 71.6916 221.397 67.751C221.483 58.0708 218.748 50.7035 213.277 45.7349Z" fill="#005CA9"/>
<path d="M82.5823 42.0512L49.4171 49.4185L51.1267 49.6755L53.52 50.0181L71.3848 52.5881L75.5732 53.1878L108.396 39.1386C109.08 38.8816 109.422 38.025 109.166 37.3396C108.995 36.8256 108.482 36.483 107.884 36.483H107.542L93.2669 39.6526L82.5823 42.0512Z" fill="#005CA9"/>
<path d="M85.4884 79.2301C88.3947 80.1724 90.8735 82.1428 92.4121 84.7984L98.7374 95.6779C99.4212 96.7916 100.618 97.4769 101.9 97.4769L120.534 97.5626C121.816 97.5626 123.098 96.8772 123.697 95.7636C124.381 94.6499 124.381 93.1936 123.697 92.08C123.697 92.08 111.986 72.3769 111.644 71.6915C109.764 68.5219 106.516 66.2946 102.84 65.7806L11.0378 52.5024C10.9523 52.5024 10.8668 52.5024 10.7813 52.5024C10.012 52.5024 9.4137 53.1878 9.4137 53.9588C9.4137 54.5584 9.84108 55.0724 10.3539 55.2437L85.4884 79.2301Z" fill="#EF7D00"/>
</svg>
